<svg xmlns="http://www.w3.org/2000/svg" width="600" height="468" viewBox="0 0 600 468">
  <g id="Group_1" data-name="Group 1" transform="translate(-1047 -240)">
    <g id="Path_1" data-name="Path 1" transform="translate(1047 226)" fill="#811d1b">
      <path d="M 580 345.0000610351563 L 20 345.0000610351563 C 15.993332862854 345.0000610351563 12.22658348083496 343.4397888183594 9.393416404724121 340.6066284179688 C 6.619389533996582 337.8326110839844 5.065695762634277 334.1635131835938 5.002040386199951 330.2505798339844 L 36.91891479492188 34.53671264648438 L 36.94775009155273 34.26921081542969 L 36.94775009155273 34.00012969970703 C 36.94775009155273 29.99346160888672 38.50799942016602 26.22662925720215 41.34116744995117 23.39354515075684 C 44.05251693725586 20.6821174621582 47.61880874633789 19.13657379150391 51.4323616027832 19.00875854492188 L 578.9058227539063 137.300048828125 L 579.4462280273438 137.4212188720703 L 580 137.4212188720703 C 582.391357421875 137.4212188720703 583.4303588867188 137.6846771240234 583.8099365234375 137.8222961425781 C 583.85888671875 138.0262451171875 583.9242553710938 138.4118804931641 583.957275390625 139.0895385742188 C 584.0106811523438 140.1868743896484 583.9601440429688 141.6011352539063 583.9017333984375 143.2387084960938 C 583.8494262695313 144.7048797607422 583.7901611328125 146.3666229248047 583.7901611328125 148.2106323242188 L 583.7901611328125 148.3646240234375 L 583.7996826171875 148.5183715820313 L 594.9993286132813 330.1429748535156 C 594.9627075195313 334.09619140625 593.406005859375 337.8072509765625 590.6065673828125 340.6066284179688 C 587.7734985351563 343.4397888183594 584.0066528320313 345.0000610351563 580 345.0000610351563 Z" stroke="none"/>
      <path d="M 51.02734375 24.04205322265625 C 45.94317626953125 24.5081787109375 41.94775390625 28.79635620117188 41.94775390625 34.00003051757813 L 41.94775390625 34.53811645507813 L 41.8900146484375 35.0731201171875 L 10.00982666015625 330.4467163085938 C 10.24444580078125 335.7541198730469 14.6357421875 339.9999694824219 20 339.9999694824219 L 580 339.9999694824219 C 585.5139770507813 339.9999694824219 590 335.5139770507813 590.0189208984375 330.615478515625 L 578.7901611328125 148.2106323242188 C 578.7901611328125 146.3253021240234 578.849609375 144.6107940673828 578.9049072265625 143.060546875 C 578.9127197265625 142.8423461914063 578.9218139648438 142.6291809082031 578.9314575195313 142.4212188720703 L 578.8923950195313 142.4212188720703 L 577.811767578125 142.1788787841797 L 51.02734375 24.04205322265625 M 51.94775390625 14.00003051757813 L 580 132.4212188720703 C 591.045654296875 132.4212188720703 588.7901611328125 137.1649627685547 588.7901611328125 148.2106323242188 L 600 329.9999694824219 C 600 341.0457153320313 591.045654296875 349.9999694824219 580 349.9999694824219 L 20 349.9999694824219 C 8.9542236328125 349.9999694824219 0 341.0457153320313 0 329.9999694824219 L 31.94775390625 34.00003051757813 C 31.94775390625 22.95437622070313 40.9019775390625 14.00003051757813 51.94775390625 14.00003051757813 Z" stroke="none" fill="#9f2f2f"/>
    </g>
    <path id="Path_2" data-name="Path 2" d="M-3.241-.317,506,0V56L1.243,56.65Z" transform="translate(1090.49 276.904) rotate(11)"/>
    <g id="Rectangle_1" data-name="Rectangle 1" transform="translate(1047 358)" fill="#c73735" stroke="#9f2f2f" stroke-width="10">
      <rect width="600" height="350" rx="20" stroke="none"/>
      <rect x="5" y="5" width="590" height="340" rx="15" fill="none"/>
    </g>
    <circle id="Ellipse_2" data-name="Ellipse 2" cx="30" cy="30" r="30" transform="translate(1124 408)" fill="#ffad00" opacity="0.8"/>
    <circle id="Ellipse_1" data-name="Ellipse 1" cx="30" cy="30" r="30" transform="translate(1094 408)" fill="#fa0b08" opacity="0.8"/>
    <text id="_" data-name="****" transform="translate(1103 566)" fill="#fff3f3" font-size="40" font-family="SegoeUI, Segoe UI"><tspan x="0" y="0">****</tspan></text>
    <text id="_2" data-name="****" transform="translate(1226 566)" fill="#fff" font-size="40" font-family="SegoeUI, Segoe UI"><tspan x="0" y="0">****</tspan></text>
    <text id="_3" data-name="****" transform="translate(1349 566)" fill="#fff" font-size="40" font-family="SegoeUI, Segoe UI"><tspan x="0" y="0">****</tspan></text>
    <text id="_1234" data-name="1234" transform="translate(1472 555)" fill="#fff" font-size="30" font-family="SegoeUI, Segoe UI"><tspan x="0" y="0">1234</tspan></text>
    <text id="DODO" transform="translate(1103 636)" fill="#fff" font-size="30" font-family="SegoeUI, Segoe UI"><tspan x="0" y="0">DODO</tspan></text>
    <text id="_01_23" data-name="01/23" transform="translate(1472 636)" fill="#fff" font-size="30" font-family="SegoeUI, Segoe UI"><tspan x="0" y="0">01/23</tspan></text>
  </g>
</svg>
